<svg viewBox="0 0 313 301" xmlns="http://www.w3.org/2000/svg" fill-rule="evenodd" clip-rule="evenodd" stroke-linejoin="round" stroke-miterlimit="2">
    <Title>Logo do Syslaudo</Title>
    <path d="M228.51 0h-.75c-29.84 0-56.23 15.79-71.41 39.09C141.17 15.79 114.78 0 84.94 0h-.75C37.886.441.025 38.644 0 84.95c0 27.81 12.18 67.27 35.93 99.74 45.25 61.87 120.42 116 120.42 116s75.17-54.12 120.41-116c23.76-32.47 35.93-71.93 35.93-99.74C312.665 38.648 274.81.447 228.51 0zm-10.73 189.45a16.88 16.88 0 01-15.67-10.82h-17.84a5.652 5.652 0 01-5.31-3.84l-5.48-16.51-17.34 60.59a5.624 5.624 0 01-5.38 4.05h-.35a5.557 5.557 0 01-5.2-4.64L127.34 110.8l-13.06 63.6a5.584 5.584 0 01-5.41 4.23H83.74a6.237 6.237 0 01-.236.005c-3.067 0-5.59-2.523-5.59-5.59 0-3.067 2.523-5.59 5.59-5.59.078 0 .157.002.236.005h20.73l18.5-85.51a5.626 5.626 0 015.455-4.3 5.629 5.629 0 015.545 4.76l18.25 109.64 15.54-54.21a5.513 5.513 0 015.23-4h.11a5.592 5.592 0 015.3 3.84l9.91 29.81h13.58c2.257-6.857 8.701-11.52 15.92-11.52 9.194 0 16.76 7.566 16.76 16.76 0 9.194-7.566 16.76-16.76 16.76l-.03-.04z" fill="current" fill-rule="nonzero" />
</svg>