<svg viewBox="0 0 959 252" xmlns="http://www.w3.org/2000/svg" fill-rule="evenodd" clip-rule="evenodd" stroke-linejoin="round" stroke-miterlimit="2">
    <title>Logo do Syslaudo</title>
    <path d="M189.018 0h-.62c-24.683 0-46.513 13.187-59.07 32.645C116.773 13.187 94.944 0 70.26 0h-.62C31.338.368.02 32.272 0 70.943c0 23.225 10.075 56.178 29.72 83.294 37.43 51.669 99.609 96.873 99.609 96.873s62.179-45.196 99.6-96.873c19.654-27.116 29.72-60.07 29.72-83.294C258.63 32.276 227.317.373 189.019 0zm-8.876 158.212c-5.741-.021-10.907-3.623-12.961-9.036h-14.757a4.68 4.68 0 01-4.393-3.206l-4.533-13.788-14.343 50.6c-.572 1.994-2.393 3.378-4.45 3.382h-.29c-2.151-.106-3.953-1.73-4.3-3.875L105.332 92.53 94.53 145.644c-.508 2.07-2.364 3.534-4.475 3.532H69.268a5.11 5.11 0 01-.196.005c-2.537 0-4.624-2.107-4.624-4.669 0-2.561 2.087-4.668 4.624-4.668.065 0 .13.002.196.004h17.147l15.303-71.41c.5-2.099 2.374-3.591 4.512-3.591 2.281 0 4.24 1.698 4.587 3.975l15.096 91.562 12.854-45.272c.548-1.952 2.316-3.318 4.326-3.34h.091a4.63 4.63 0 014.384 3.207l8.197 24.894H167c1.866-5.726 7.197-9.62 13.168-9.62 7.605 0 13.864 6.318 13.864 13.996 0 7.678-6.259 13.997-13.864 13.997l-.025-.034zM303.446 154.882c-1.097-1.411-1.568-3.292-1.41-5.643.156-2.352 1.41-4.233 4.075-5.957 1.724-1.097 3.448-1.567 5.33-1.41 1.88.156 3.761 1.253 5.486 2.978a39.56 39.56 0 009.561 7.053c3.292 1.725 7.524 2.508 12.54 2.508 1.568-.156 3.292-.313 5.173-.783 1.881-.314 3.606-1.098 5.016-2.508 1.411-1.254 2.038-3.292 2.038-5.957 0-2.351-.784-4.075-2.351-5.486-1.568-1.41-3.605-2.508-6.27-3.449-2.508-.94-5.33-1.88-8.465-2.664-3.292-.94-6.583-2.038-9.875-3.135a37.346 37.346 0 01-9.405-4.546c-2.822-1.724-5.173-4.233-6.897-7.21-1.725-2.98-2.665-6.898-2.665-11.444 0-5.172 1.41-9.718 4.389-13.323 2.978-3.606 6.74-6.427 11.443-8.465 4.546-2.038 9.405-2.978 14.578-2.978 3.291 0 6.583.313 10.189 1.097 3.605.784 6.897 2.038 10.188 3.762 3.292 1.881 5.957 4.076 8.151 6.897 1.098 1.568 1.881 3.449 2.038 5.643.157 2.195-.784 4.232-2.978 5.957-1.568 1.254-3.449 1.724-5.486 1.567-2.038-.157-3.762-.784-5.173-2.038-1.724-2.35-4.076-4.075-7.054-5.486-3.135-1.41-6.427-2.038-10.346-2.038-1.567 0-3.291.157-5.172.47a13.275 13.275 0 00-4.703 2.352c-1.41 1.254-2.038 3.135-2.038 5.8 0 2.35.784 4.232 2.352 5.643 1.567 1.567 3.762 2.664 6.426 3.448 2.665.94 5.487 1.881 8.465 2.665 3.135.784 6.27 1.881 9.562 2.978a34.259 34.259 0 018.935 4.546 22.42 22.42 0 016.583 7.21c1.724 3.136 2.508 6.898 2.508 11.443 0 5.33-1.567 9.876-4.702 13.638-3.135 3.762-7.054 6.583-11.757 8.464a36.026 36.026 0 01-14.42 2.979c-6.114 0-12.384-1.098-18.497-3.292-6.114-2.038-11.287-5.8-15.362-11.286zM446.09 84.03c2.664 0 5.016.94 6.74 2.665 1.724 1.881 2.665 4.232 2.665 6.897v66.62c0 9.561-1.881 17.242-5.33 22.885-3.605 5.8-8.465 9.875-14.578 12.383-6.113 2.508-12.853 3.762-20.377 3.762-3.292 0-6.898-.313-10.66-.783-3.762-.47-6.897-1.254-9.248-2.352-3.135-1.41-5.33-3.135-6.427-5.172-1.254-2.038-1.567-4.076-.783-6.427.94-2.979 2.508-5.173 4.545-6.27 2.038-1.098 4.233-1.098 6.584-.314 1.724.47 3.919 1.254 6.583 2.351 2.665 1.098 5.8 1.725 9.406 1.725 4.859 0 8.778-.627 12.07-2.038 3.134-1.254 5.486-3.449 7.21-6.584 1.567-2.978 2.351-7.21 2.351-12.54v-10.502l3.292 3.762c-1.724 3.449-3.919 6.27-6.584 8.465-2.664 2.35-5.956 4.075-9.561 5.172-3.606 1.098-7.838 1.725-12.54 1.725-5.487 0-10.346-1.254-14.422-3.92-4.232-2.507-7.367-6.112-9.718-10.658-2.351-4.546-3.449-9.719-3.449-15.519V93.592c0-2.665.94-5.016 2.665-6.897 1.724-1.724 4.076-2.665 6.74-2.665 2.665 0 5.016.94 6.74 2.665 1.725 1.881 2.665 4.232 2.665 6.897v40.128c0 6.74 1.568 11.6 4.546 14.265 2.979 2.821 7.054 4.232 12.384 4.232 3.605 0 6.74-.784 9.248-2.195 2.508-1.41 4.389-3.448 5.8-6.27 1.41-2.664 2.037-6.113 2.037-10.032V93.592c0-2.665.941-5.016 2.665-6.897 1.724-1.724 4.076-2.665 6.74-2.665zM469.445 154.882c-1.097-1.411-1.567-3.292-1.41-5.643.156-2.352 1.41-4.233 4.075-5.957 1.724-1.097 3.449-1.567 5.33-1.41 1.88.156 3.762 1.253 5.486 2.978a39.56 39.56 0 009.562 7.053c3.292 1.725 7.524 2.508 12.54 2.508 1.567-.156 3.292-.313 5.173-.783 1.88-.314 3.605-1.098 5.016-2.508 1.41-1.254 2.038-3.292 2.038-5.957 0-2.351-.784-4.075-2.352-5.486-1.567-1.41-3.605-2.508-6.27-3.449-2.508-.94-5.33-1.88-8.464-2.664-3.292-.94-6.584-2.038-9.876-3.135a37.346 37.346 0 01-9.405-4.546c-2.821-1.724-5.172-4.233-6.897-7.21-1.724-2.98-2.665-6.898-2.665-11.444 0-5.172 1.411-9.718 4.39-13.323 2.978-3.606 6.74-6.427 11.442-8.465 4.546-2.038 9.405-2.978 14.578-2.978 3.292 0 6.584.313 10.189 1.097 3.605.784 6.897 2.038 10.189 3.762 3.292 1.881 5.956 4.076 8.15 6.897 1.098 1.568 1.882 3.449 2.039 5.643.156 2.195-.784 4.232-2.979 5.957-1.567 1.254-3.448 1.724-5.486 1.567-2.038-.157-3.762-.784-5.173-2.038-1.724-2.35-4.075-4.075-7.053-5.486-3.135-1.41-6.427-2.038-10.346-2.038-1.568 0-3.292.157-5.173.47a13.275 13.275 0 00-4.702 2.352c-1.411 1.254-2.038 3.135-2.038 5.8 0 2.35.784 4.232 2.351 5.643 1.568 1.567 3.762 2.664 6.427 3.448 2.665.94 5.486 1.881 8.464 2.665 3.136.784 6.27 1.881 9.562 2.978a34.259 34.259 0 018.935 4.546 22.42 22.42 0 016.584 7.21c1.724 3.136 2.508 6.898 2.508 11.443 0 5.33-1.568 9.876-4.703 13.638-3.135 3.762-7.054 6.583-11.756 8.464a36.026 36.026 0 01-14.421 2.979c-6.114 0-12.384-1.098-18.497-3.292-6.113-2.038-11.286-5.8-15.362-11.286zM570.236 158.33c0 2.665-.94 5.016-2.664 6.74-1.881 1.882-4.233 2.822-6.897 2.822-2.665 0-4.86-.94-6.584-2.821-1.724-1.725-2.665-4.076-2.665-6.74V61.457c0-2.665.94-5.016 2.822-6.897 1.724-1.724 4.075-2.665 6.74-2.665s5.016.94 6.74 2.665c1.725 1.881 2.508 4.232 2.508 6.897v96.872zM660.055 82.463c2.665 0 5.016.94 6.74 2.664 1.724 1.725 2.665 4.076 2.665 6.898v66.305c0 2.665-.94 5.016-2.665 6.74-1.724 1.882-4.075 2.822-6.74 2.822s-5.016-.94-6.74-2.821c-1.725-1.725-2.665-4.076-2.665-6.74v-7.682l3.448 1.411c0 1.411-.783 2.978-2.194 4.86-1.41 2.037-3.449 3.918-5.957 5.8-2.508 1.88-5.486 3.448-8.778 4.702-3.448 1.41-7.21 2.038-11.13 2.038-7.21 0-13.793-1.881-19.593-5.487-5.8-3.762-10.502-8.935-13.794-15.518-3.449-6.427-5.173-13.95-5.173-22.415 0-8.622 1.724-16.146 5.173-22.573 3.292-6.583 7.837-11.756 13.637-15.361 5.8-3.762 12.07-5.643 19.124-5.643 4.546 0 8.621.627 12.383 2.037 3.762 1.411 7.054 3.135 9.876 5.173 2.664 2.038 4.859 4.233 6.426 6.27 1.411 2.195 2.195 4.076 2.195 5.487l-5.643 2.037V92.025c0-2.665.94-5.017 2.665-6.898 1.724-1.724 4.075-2.664 6.74-2.664zm-31.664 69.754c4.546 0 8.621-1.097 12.07-3.449 3.449-2.35 6.113-5.486 8.151-9.405 1.881-3.918 2.822-8.464 2.822-13.323 0-5.017-.94-9.562-2.822-13.481-2.038-3.919-4.702-7.054-8.151-9.405-3.449-2.351-7.524-3.449-12.07-3.449s-8.464 1.098-11.913 3.449c-3.448 2.351-6.113 5.486-7.994 9.405-2.038 3.919-2.978 8.464-2.978 13.48 0 4.86.94 9.406 2.978 13.324 1.88 3.92 4.546 7.054 7.994 9.405 3.449 2.352 7.367 3.449 11.913 3.449z" fill="current" fill-rule="nonzero" />
    <g>
        <path d="M750.5 84.03c2.665 0 5.016.94 6.74 2.665 1.725 1.881 2.665 4.232 2.665 6.897v39.815c0 11.13-3.135 19.907-9.248 26.334-6.113 6.427-15.048 9.719-26.648 9.719s-20.377-3.292-26.49-9.719c-6.114-6.427-9.249-15.205-9.249-26.334V93.592c0-2.665.94-5.016 2.665-6.897 1.724-1.724 4.075-2.665 6.74-2.665s5.016.94 6.74 2.665c1.725 1.881 2.665 4.232 2.665 6.897v39.815c0 6.427 1.411 11.13 4.233 14.107 2.821 3.135 7.053 4.703 12.696 4.703 5.8 0 10.032-1.568 12.854-4.703 2.822-2.978 4.232-7.68 4.232-14.107V93.592c0-2.665.94-5.016 2.665-6.897 1.724-1.724 4.076-2.665 6.74-2.665zM848.156 51.896c2.665 0 5.016.94 6.74 2.665 1.725 1.724 2.665 4.076 2.665 6.897v96.872c0 2.665-.94 5.016-2.664 6.74-1.725 1.882-4.076 2.822-6.74 2.822-2.665 0-5.017-.94-6.74-2.821-1.725-1.725-2.666-4.076-2.666-6.74v-7.682l3.449 1.411c0 1.411-.784 2.978-2.195 4.86-1.41 2.037-3.448 3.918-5.956 5.8-2.508 1.88-5.487 3.448-8.778 4.702-3.449 1.41-7.21 2.038-11.13 2.038-7.21 0-13.794-1.881-19.594-5.487-5.8-3.762-10.502-8.935-13.794-15.518-3.448-6.427-5.172-13.95-5.172-22.415 0-8.622 1.724-16.146 5.172-22.573 3.292-6.583 7.838-11.756 13.638-15.361 5.8-3.762 12.07-5.643 19.123-5.643 4.546 0 8.622.627 12.384 2.037 3.762 1.411 7.053 3.135 9.875 5.173 2.665 2.038 4.86 4.233 6.427 6.27 1.41 2.195 2.194 4.076 2.194 5.487l-5.643 2.037V61.458c0-2.665.94-5.016 2.665-6.897 1.724-1.724 4.076-2.665 6.74-2.665zm-31.663 100.321c4.545 0 8.62-1.097 12.07-3.449 3.448-2.35 6.113-5.486 8.15-9.405 1.882-3.918 2.822-8.464 2.822-13.323 0-5.017-.94-9.562-2.821-13.481-2.038-3.919-4.703-7.054-8.152-9.405-3.448-2.351-7.524-3.449-12.07-3.449-4.545 0-8.464 1.098-11.912 3.449-3.449 2.351-6.114 5.486-7.995 9.405-2.038 3.919-2.978 8.464-2.978 13.48 0 4.86.94 9.406 2.978 13.324 1.881 3.92 4.546 7.054 7.995 9.405 3.448 2.352 7.367 3.449 11.913 3.449zM958.51 126.04c0 8.62-1.882 16.145-5.644 22.572-3.919 6.583-8.935 11.756-15.361 15.361-6.427 3.606-13.638 5.487-21.632 5.487-7.994 0-15.048-1.881-21.475-5.487-6.427-3.605-11.6-8.778-15.518-15.361-3.762-6.427-5.643-13.951-5.643-22.572 0-8.622 1.88-16.146 5.643-22.573 3.918-6.583 9.091-11.756 15.518-15.361 6.427-3.762 13.48-5.643 21.475-5.643 7.994 0 15.205 1.88 21.632 5.643 6.426 3.605 11.442 8.778 15.361 15.361 3.762 6.427 5.643 13.951 5.643 22.573zm-18.81 0c0-5.33-1.098-10.033-3.136-13.951-2.194-3.92-5.173-6.897-8.621-9.092-3.606-2.194-7.681-3.292-12.07-3.292-4.39 0-8.308 1.098-11.913 3.292-3.762 2.195-6.584 5.173-8.778 9.092-2.038 3.918-3.135 8.621-3.135 13.95 0 5.173 1.097 9.876 3.135 13.638 2.194 3.919 5.016 7.054 8.778 9.248 3.605 2.195 7.524 3.292 11.913 3.292s8.464-1.097 12.07-3.292c3.448-2.194 6.427-5.33 8.621-9.248 2.038-3.762 3.135-8.465 3.135-13.637z" fill="current" fill-rule="nonzero" />
    </g>
</svg>